<?xml version="1.0" standalone="no"?>
<!DOCTYPE svg PUBLIC "-//W3C//DTD SVG 20010904//EN"
 "http://www.w3.org/TR/2001/REC-SVG-20010904/DTD/svg10.dtd">
<svg version="1.0" xmlns="http://www.w3.org/2000/svg"
 width="759.000000pt" height="695.000000pt" viewBox="0 0 759.000000 695.000000"
 preserveAspectRatio="xMidYMid meet">
<metadata>
Created by potrace 1.16, written by Peter Selinger 2001-2019
</metadata>
<g transform="translate(0.000000,695.000000) scale(0.100000,-0.100000)"
fill="#000000" stroke="none">
<path d="M3096 6608 c-8 -13 -20 -63 -26 -113 -7 -49 -18 -117 -25 -150 -7
-33 -16 -87 -20 -120 -12 -100 -23 -94 -17 10 4 85 3 100 -13 111 -38 28 -45
9 -45 -130 0 -186 -28 -433 -72 -643 -13 -60 -6 -92 16 -73 8 6 18 26 21 43 4
18 22 88 42 157 83 296 203 776 210 847 6 57 -6 83 -38 83 -10 0 -25 -10 -33
-22z"/>
<path d="M2077 6323 c-12 -12 -7 -99 6 -117 8 -10 22 -16 33 -14 16 3 19 11
17 47 -3 59 -34 106 -56 84z"/>
<path d="M5280 6199 c-79 -22 -124 -39 -505 -193 -133 -54 -298 -113 -370
-133 -120 -32 -134 -34 -183 -23 -29 6 -74 9 -100 5 -29 -4 -71 0 -112 9 -89
21 -168 20 -205 -2 -17 -11 -55 -25 -85 -32 -82 -18 -135 -53 -156 -100 -10
-23 -34 -50 -56 -65 -39 -26 -61 -60 -72 -111 -6 -24 -25 -43 -98 -94 -50 -35
-126 -95 -167 -135 -42 -39 -106 -92 -143 -119 -88 -61 -218 -191 -293 -294
-36 -48 -73 -88 -93 -97 -149 -73 -367 98 -504 393 -40 87 -63 122 -80 122
-13 0 -10 -38 11 -135 61 -279 39 -504 -52 -552 -93 -48 -291 69 -529 313 -96
98 -138 131 -138 109 0 -11 40 -83 119 -215 99 -164 150 -307 158 -440 5 -78
3 -90 -21 -138 -14 -29 -33 -52 -41 -52 -9 0 -41 14 -72 32 -63 35 -63 23 -1
-22 l40 -29 -26 -12 c-21 -10 -34 -9 -71 5 -57 22 -78 16 -36 -10 l32 -21 -26
-17 c-79 -52 -263 -71 -395 -41 -41 9 -94 21 -118 26 -23 4 -86 27 -139 49
-108 45 -133 49 -133 21 0 -15 25 -29 109 -65 60 -25 117 -46 128 -46 30 0
219 -96 290 -146 82 -59 114 -103 76 -105 -13 0 -12 -4 7 -12 38 -18 70 -41
70 -49 0 -5 -17 -8 -37 -8 l-38 0 53 -25 c39 -18 52 -29 52 -46 0 -22 -8 -23
-79 -3 -43 13 -18 -20 30 -37 25 -10 45 -24 47 -34 3 -15 -2 -16 -40 -10 -62
11 -63 11 -68 0 -2 -5 19 -18 47 -29 38 -13 50 -22 46 -33 -5 -13 -18 -14 -72
-9 l-66 6 24 -20 c13 -11 34 -20 47 -20 33 0 30 -10 -13 -51 -99 -93 -222
-139 -445 -164 -63 -7 -91 -27 -67 -49 8 -7 57 -18 109 -25 145 -17 379 -91
289 -91 -14 0 -34 -7 -45 -15 -19 -14 -19 -14 1 -15 11 0 37 5 58 11 32 9 43
7 78 -13 l40 -22 -86 -23 c-79 -21 -151 -50 -143 -58 1 -2 24 1 50 5 25 5 75
11 110 14 34 3 77 8 94 11 59 13 44 -12 -31 -51 -72 -37 -91 -54 -61 -54 7 0
43 14 79 30 37 17 73 30 82 30 33 0 12 -28 -46 -60 -75 -43 -98 -67 -54 -56
17 4 54 18 84 32 61 27 71 29 71 12 0 -7 -34 -34 -75 -61 -41 -26 -75 -52 -75
-57 0 -14 -2 -14 83 25 42 19 80 35 86 35 27 0 5 -24 -59 -66 -38 -25 -70 -52
-70 -59 0 -22 8 -19 84 25 38 22 71 38 74 36 11 -11 -10 -37 -60 -74 -29 -22
-64 -52 -78 -66 -21 -23 -22 -26 -5 -20 11 4 45 23 75 41 64 38 70 40 70 13 0
-13 -31 -42 -94 -89 -51 -39 -99 -77 -106 -86 -17 -21 119 42 148 68 33 31 29
1 -9 -59 -42 -65 -150 -169 -249 -238 -44 -31 -80 -63 -80 -71 0 -20 0 -20
125 25 61 23 148 52 195 66 47 14 93 28 103 31 25 8 21 -11 -11 -49 l-27 -33
30 19 c17 11 48 32 69 48 43 31 83 39 69 13 -11 -19 -147 -134 -241 -203 -68
-51 -84 -73 -62 -87 9 -6 150 105 308 242 70 61 90 71 106 55 5 -4 -43 -56
-105 -116 -93 -88 -106 -104 -72 -85 24 12 84 59 135 103 88 77 92 79 116 65
37 -20 36 -30 -3 -83 -54 -70 -41 -94 14 -28 48 56 56 61 65 36 4 -11 -14 -42
-56 -93 -34 -42 -66 -83 -72 -91 -17 -23 64 44 108 89 35 36 56 44 56 22 0 -5
-23 -37 -51 -72 -81 -102 -91 -135 -16 -54 50 54 68 67 77 58 10 -9 -1 -28
-47 -85 -33 -40 -68 -89 -77 -108 -15 -30 -8 -26 46 31 35 36 71 71 81 78 15
12 17 11 17 -5 0 -11 -27 -52 -60 -92 -33 -41 -60 -76 -60 -79 0 -2 25 17 55
43 31 26 58 44 62 40 4 -3 -3 -30 -15 -58 -12 -29 -18 -54 -13 -57 10 -7 -15
-106 -49 -197 -25 -66 -22 -106 6 -83 8 7 32 37 52 68 38 57 179 207 188 199
2 -3 -7 -31 -21 -63 -14 -31 -24 -60 -21 -62 5 -5 10 3 67 100 37 63 65 94 76
83 4 -3 -1 -38 -11 -77 -10 -38 -16 -72 -14 -75 3 -2 22 36 42 85 20 49 44 95
52 101 35 29 8 -39 -95 -246 -141 -284 -261 -581 -241 -595 40 -26 51 -9 125
186 39 105 87 226 107 270 20 44 46 105 58 135 12 30 30 69 40 85 10 17 30 59
45 95 30 73 50 99 64 85 5 -6 -1 -42 -15 -89 -40 -134 -27 -143 26 -19 42 97
50 110 62 89 10 -17 -17 -103 -83 -262 -48 -117 -60 -150 -94 -265 -31 -108
-32 -139 -5 -139 25 0 33 19 71 170 28 109 109 360 144 443 17 40 35 41 35 3
0 -13 -16 -85 -35 -160 -19 -75 -35 -149 -34 -164 1 -25 2 -24 19 13 11 23 33
92 50 155 33 122 36 130 51 130 15 0 10 -57 -22 -245 -39 -231 -40 -239 -13
-243 27 -4 29 4 49 185 9 77 22 160 29 184 l13 44 30 -65 c36 -78 59 -163 68
-248 8 -68 15 -78 45 -62 14 7 20 21 20 44 0 64 29 183 60 252 l32 69 17 -49
c27 -82 41 -71 34 28 -4 60 -3 86 5 86 17 0 29 -28 42 -98 20 -101 33 -88 25
27 -6 88 -5 101 9 101 15 0 28 -36 41 -115 10 -59 25 -105 36 -105 12 0 11 18
-7 127 -9 52 -13 97 -9 101 12 12 32 -27 49 -96 31 -123 46 -172 56 -172 16 0
12 37 -14 145 -14 55 -22 102 -20 105 15 14 43 -28 68 -104 32 -99 53 -104 30
-7 -8 36 -13 69 -11 74 6 18 137 -136 188 -219 35 -59 56 -84 70 -84 24 0 24
9 -2 106 -21 83 -33 323 -16 341 5 4 30 -16 55 -45 26 -29 50 -52 55 -52 9 0
-28 76 -54 109 -21 26 -25 51 -8 51 6 0 45 -36 88 -80 73 -75 91 -90 91 -72 0
4 -27 41 -60 82 -56 69 -72 100 -52 100 4 0 30 -22 57 -50 27 -28 53 -50 57
-50 5 0 -1 18 -12 40 -17 33 -18 40 -5 40 34 0 230 -112 384 -219 42 -30 61
-32 61 -8 0 7 -28 44 -62 84 -71 80 -181 251 -215 333 -25 61 -31 112 -11 92
23 -23 31 -12 9 12 -19 20 -21 28 -11 46 l11 21 33 -21 c46 -28 52 -25 21 11
-14 17 -24 37 -22 43 5 15 133 36 187 30 25 -3 107 -19 183 -36 89 -20 142
-27 148 -21 14 14 -29 53 -110 97 -38 22 -110 69 -158 105 -74 56 -93 76 -120
129 -54 104 -40 188 34 213 21 8 78 13 128 13 79 -1 102 -5 190 -39 55 -21
188 -79 295 -130 246 -117 368 -160 512 -181 159 -23 322 -4 435 51 58 29 189
154 234 224 36 56 40 134 9 173 -16 21 -18 31 -10 59 16 55 12 155 -6 173 -22
23 -34 20 -71 -16 l-33 -32 0 64 c0 82 -18 107 -61 84 l-29 -15 0 40 c0 53
-36 64 -80 24 -8 -7 -31 -24 -50 -36 -28 -18 -36 -31 -40 -62 l-5 -40 -27 40
c-24 33 -25 41 -13 48 8 4 20 5 26 2 14 -10 88 70 110 119 20 45 25 101 9 111
-6 4 -47 -7 -91 -24 -117 -45 -117 -45 -112 37 7 110 -28 147 -92 98 -18 -14
-35 -26 -37 -26 -2 0 -3 28 -3 61 -1 52 -4 64 -24 80 -32 26 -39 25 -82 -22
-44 -47 -59 -46 -83 5 -13 29 -15 43 -7 73 6 21 15 99 21 174 7 95 24 197 55
335 60 263 51 241 85 209 37 -35 59 -24 90 47 l23 53 20 -47 c22 -54 49 -68
77 -43 19 17 46 87 52 135 3 23 6 21 32 -23 21 -36 34 -47 49 -45 26 4 56 54
71 121 l12 52 25 -50 c31 -64 59 -71 89 -23 11 18 23 49 26 68 3 19 8 48 11
63 l5 28 29 -41 c34 -47 50 -50 78 -14 23 30 45 122 35 150 -5 14 0 11 20 -9
16 -18 33 -27 42 -23 9 3 18 6 20 6 9 0 54 105 54 128 0 12 6 22 14 22 32 0
57 35 68 98 8 45 16 62 28 62 26 0 58 28 87 78 24 40 29 63 36 162 14 192 14
200 -15 260 -14 30 -50 80 -78 110 -29 30 -76 84 -105 120 -74 92 -102 115
-170 146 -120 54 -186 66 -385 70 -164 4 -194 2 -260 -17z m493 -67 c81 -25
207 -81 207 -93 0 -15 -25 -10 -133 26 -132 44 -149 45 -108 4 51 -51 36 -59
-34 -17 -41 24 -129 41 -170 34 -19 -4 -48 -18 -65 -33 -17 -14 -33 -23 -35
-21 -3 2 4 22 15 43 11 21 18 40 16 43 -6 5 -160 -27 -232 -49 -33 -10 -69
-28 -79 -39 -18 -20 -18 -20 42 -20 34 0 105 -10 160 -21 148 -32 171 -33 233
-10 30 12 63 21 73 21 9 0 17 5 17 11 0 6 7 4 15 -5 8 -8 15 -19 15 -25 0 -13
-186 -71 -227 -71 -17 0 -50 7 -74 16 -30 11 -90 18 -189 21 -123 4 -158 2
-232 -16 -107 -25 -158 -46 -158 -63 0 -26 -21 -38 -44 -26 -23 13 -76 11
-112 -2 -17 -7 -21 -14 -17 -30 5 -21 3 -21 -41 -15 -35 6 -51 4 -64 -8 -9 -8
-42 -18 -72 -22 -70 -9 -71 -10 -59 -42 13 -34 6 -38 -28 -18 -38 23 -68 64
-55 77 5 5 54 21 108 34 99 26 154 46 434 162 191 79 412 161 465 172 22 5
112 7 200 5 124 -2 175 -8 228 -23z m164 -254 c11 -13 26 -33 32 -45 8 -16 21
-23 42 -23 35 0 46 21 30 57 -26 58 18 33 49 -28 23 -43 44 -54 65 -32 9 8 17
14 19 12 17 -19 56 -115 56 -138 l0 -30 -57 35 c-69 41 -104 49 -213 48 -91
-2 -190 -28 -313 -83 -65 -29 -176 -113 -287 -217 -93 -87 -243 -198 -330
-243 -107 -56 -165 -77 -340 -121 -184 -48 -268 -86 -372 -174 -166 -138 -248
-184 -378 -212 -243 -51 -249 -55 -385 -196 -110 -114 -184 -165 -297 -205
-103 -36 -176 -41 -208 -15 -22 18 -25 28 -24 78 1 48 10 74 55 163 50 99 54
111 53 176 0 52 -7 86 -27 134 -34 81 -35 145 -3 239 33 95 71 164 124 224 52
57 195 158 224 158 26 0 118 -33 118 -42 0 -4 -17 -10 -37 -14 -21 -4 -46 -11
-55 -15 -21 -11 -48 -97 -48 -151 0 -21 -5 -38 -10 -38 -13 0 -30 43 -30 78 0
15 -4 33 -8 39 -12 19 -86 -38 -106 -81 -14 -31 -14 -38 -1 -77 9 -24 27 -61
41 -81 17 -27 20 -38 10 -38 -22 0 -62 37 -76 70 -16 40 -26 38 -33 -6 -8 -49
12 -93 59 -132 38 -32 38 -32 12 -32 -34 0 -87 44 -106 90 -13 31 -16 33 -23
15 -23 -59 23 -262 62 -272 15 -4 17 -11 12 -32 -15 -65 -75 -222 -107 -284
-39 -73 -44 -104 -22 -113 8 -3 52 6 99 20 113 35 245 122 309 204 46 59 132
126 196 151 17 8 45 29 62 47 32 37 47 41 42 12 -4 -21 4 -22 64 -7 36 9 48
18 63 48 19 37 58 78 66 70 2 -3 -2 -23 -10 -44 -17 -52 -2 -57 61 -20 70 41
114 84 114 111 0 24 23 33 35 14 10 -16 29 -11 58 15 21 20 27 35 27 65 0 42
12 50 39 25 23 -20 62 1 72 37 8 31 46 88 58 88 5 0 5 -18 1 -40 -7 -38 -6
-40 14 -34 49 15 72 35 96 80 34 64 55 71 45 14 l-7 -42 43 7 c48 8 69 20 69
40 0 16 39 65 52 65 6 0 7 -15 3 -41 -7 -39 -6 -41 16 -34 56 18 90 37 96 53
10 31 43 97 58 116 23 30 29 12 15 -44 -7 -28 -10 -53 -7 -56 7 -7 78 30 105
56 12 11 22 32 22 46 0 29 28 94 41 94 4 0 9 -23 11 -51 l3 -52 54 49 c53 48
53 48 48 95 -4 34 -2 51 8 59 12 10 18 6 32 -19 10 -17 22 -31 28 -31 5 0 32
24 60 54 27 29 64 60 80 69 45 23 63 48 67 92 4 51 32 61 42 15 l6 -31 51 27
51 28 -4 48 c-6 61 13 65 36 8 9 -22 18 -40 21 -40 3 0 21 7 40 14 37 16 41
28 25 70 -15 40 14 33 40 -9 24 -38 23 -38 70 -29 28 6 31 10 27 33 -3 14 -9
34 -12 44 -10 24 8 21 32 -5z m-814 6 c12 -12 -22 -61 -74 -108 -28 -25 -55
-46 -60 -46 -17 0 -9 20 24 57 18 21 43 53 56 71 21 30 40 40 54 26z m-133
-19 c0 -17 -99 -99 -109 -90 -6 6 92 105 103 105 3 0 6 -7 6 -15z m240 -12 c0
-27 -58 -109 -106 -148 -25 -21 -47 -35 -50 -32 -7 7 134 197 146 197 6 0 10
-7 10 -17z m68 -101 c-29 -47 -87 -112 -100 -112 -15 0 -5 19 58 109 46 64 60
78 62 61 2 -11 -7 -37 -20 -58z m-1305 43 c29 -11 47 -25 51 -38 3 -12 3 -23
1 -25 -2 -2 -29 2 -59 9 -31 7 -59 9 -63 6 -3 -4 -1 -19 6 -33 6 -15 9 -29 7
-32 -11 -10 -67 22 -86 48 -57 80 17 113 143 65z m275 -27 c15 -7 28 -23 30
-36 3 -21 1 -22 -57 -15 -41 4 -61 2 -61 -5 0 -6 5 -14 10 -17 14 -9 13 -35
-2 -35 -6 0 -28 18 -50 40 -36 39 -47 68 -30 84 10 11 128 -1 160 -16z m-484
-14 c13 -35 7 -44 -31 -44 -21 0 -45 -4 -53 -10 -12 -7 -12 -12 4 -29 10 -11
15 -25 11 -30 -9 -15 -58 -14 -73 1 -18 18 -14 73 6 91 40 37 125 50 136 21z
m1581 -84 c-20 -33 -43 -60 -51 -60 -17 0 -16 2 40 83 52 74 60 57 11 -23z
m623 -3 c20 -23 24 -90 9 -132 -8 -22 -18 -39 -23 -37 -16 5 -64 163 -51 167
7 2 19 6 27 8 24 8 27 8 38 -6z m-1419 -32 c-37 -34 -279 -122 -279 -101 0 2
-3 11 -6 20 -4 12 0 16 16 16 12 0 72 20 133 44 62 24 119 46 127 48 20 7 26
-11 9 -27z m1528 17 c31 -20 42 -104 19 -157 l-13 -30 -13 25 c-12 23 -39 128
-40 158 0 13 28 16 47 4z m-238 -33 c19 -55 7 -179 -18 -179 -6 0 -91 163 -91
175 0 9 56 34 77 35 15 0 24 -9 32 -31z m-2231 -12 c10 -12 7 -17 -18 -27 -38
-16 -50 -37 -50 -89 0 -23 -3 -41 -6 -41 -19 0 -44 25 -54 54 -14 42 -6 60 45
105 37 32 55 32 83 -2z m363 3 c20 -6 74 -35 120 -65 46 -30 88 -55 92 -55 5
0 5 -4 2 -10 -10 -15 -65 0 -146 41 -143 73 -246 45 -319 -88 -38 -70 -56 -45
-24 33 26 64 63 105 118 130 55 26 100 30 157 14z m2236 -93 c3 -30 2 -68 -2
-84 -6 -27 -7 -27 -21 -9 -9 13 -14 47 -14 100 0 73 1 79 16 65 8 -9 18 -41
21 -72z m-518 -9 c14 -61 14 -73 0 -122 -9 -32 -13 -36 -23 -25 -28 30 -89
157 -83 173 4 9 21 25 39 36 30 18 34 19 45 4 6 -9 17 -38 22 -66z m-1032 5
c-24 -44 -82 -106 -95 -102 -8 3 8 32 44 78 56 71 81 84 51 24z m143 29 c0
-33 -151 -215 -166 -200 -3 4 29 52 72 107 71 93 94 115 94 93z m-832 -58 c54
-34 11 -127 -59 -127 -23 0 -39 8 -56 27 -27 32 -29 53 -7 84 29 42 71 48 122
16z m912 -10 c-23 -59 -103 -159 -120 -149 -10 6 108 174 122 175 4 0 3 -12
-2 -26z m-506 -11 c-20 -31 -73 -127 -134 -244 -46 -91 -97 -139 -195 -184
-121 -57 -216 -66 -326 -33 -56 16 -119 76 -119 112 l0 28 42 -37 c54 -45 132
-69 228 -70 71 0 80 2 154 45 88 50 144 108 186 190 49 96 94 158 135 189 50
37 51 37 29 4z m1159 -8 c31 -64 32 -192 1 -202 -5 -1 -30 37 -57 84 l-47 87
32 33 c18 18 37 33 43 33 6 0 19 -16 28 -35z m607 -80 c0 -14 0 -27 0 -30 0
-3 -3 -6 -6 -7 -12 -5 -27 29 -21 46 10 25 27 19 27 -9z m-1995 -7 c-43 -141
-234 -220 -370 -153 -59 28 -85 48 -85 64 0 16 14 14 80 -14 74 -31 165 -33
226 -6 22 10 63 44 89 75 52 60 71 70 60 34z m-115 -7 c0 -23 -49 -61 -91 -72
-59 -16 -127 4 -146 41 -7 13 -10 26 -8 28 1 2 22 -6 46 -18 51 -27 113 -23
156 8 31 23 43 27 43 13z m1375 -47 c20 -63 15 -148 -9 -172 -13 -13 -20 -3
-60 76 l-46 91 37 30 c21 17 43 31 49 31 6 0 19 -25 29 -56z m635 24 c14 -24
20 -51 20 -95 0 -35 -4 -63 -9 -63 -13 0 -61 117 -61 149 0 51 22 55 50 9z
m-784 -105 c23 -53 23 -162 0 -198 -10 -15 -21 -23 -26 -19 -4 5 -24 47 -45
94 l-37 85 44 37 c24 21 44 38 45 38 2 0 10 -17 19 -37z m-1716 7 c0 -18 -30
-70 -40 -70 -15 0 -12 18 7 51 17 29 33 38 33 19z m2403 -33 c8 -13 20 -41 26
-62 11 -42 5 -115 -11 -115 -4 0 -24 34 -43 77 -33 71 -34 78 -20 100 19 29
29 29 48 0z m-1879 -38 c-48 -51 -100 -72 -189 -76 -69 -4 -86 -1 -125 19 -31
16 -46 30 -48 47 -3 20 -1 23 15 16 113 -46 212 -47 303 -3 72 35 80 34 44 -3z
m1037 -36 c24 -62 6 -230 -24 -220 -14 4 -76 153 -76 182 -1 13 13 28 37 42
48 28 50 28 63 -4z m-2041 12 c0 -3 -11 -32 -24 -63 -36 -85 -60 -222 -60
-344 0 -60 -4 -108 -8 -108 -22 0 -30 61 -24 183 5 113 4 127 -9 117 -26 -22
-66 -171 -79 -295 -12 -111 -14 -118 -26 -90 -8 21 -10 63 -7 135 5 104 5 105
-14 81 -31 -38 -57 -142 -75 -306 -11 -99 -27 -30 -19 83 3 50 3 92 0 92 -28
0 -75 -217 -75 -347 0 -40 -4 -73 -10 -73 -18 0 -32 84 -25 152 4 41 2 68 -3
68 -28 0 -74 -232 -71 -357 2 -51 0 -95 -3 -98 -12 -12 -31 70 -37 164 l-6 96
-22 -50 c-34 -78 -63 -240 -63 -349 0 -55 -4 -96 -10 -96 -14 0 -30 65 -38
160 -7 84 -8 85 -24 60 -33 -48 -48 -138 -48 -282 0 -127 -8 -172 -25 -130 -4
9 -9 78 -12 152 l-6 135 -17 -40 c-24 -58 -42 -155 -49 -275 -7 -98 -8 -103
-20 -75 -13 29 -10 226 4 315 l6 35 -15 -26 c-42 -73 -71 -179 -102 -367 -9
-55 -24 -25 -24 47 0 40 10 110 25 167 30 119 30 124 5 98 -29 -29 -85 -175
-110 -289 -27 -118 -40 -140 -40 -66 0 52 17 132 46 219 8 23 14 52 14 64 0
17 -2 19 -16 8 -17 -15 -114 -207 -114 -227 0 -6 -5 -15 -11 -19 -16 -10 -5
50 28 149 14 43 23 81 20 84 -13 13 -61 -37 -88 -92 -29 -57 -29 -58 -23 -20
4 22 7 55 6 73 -3 42 14 57 124 117 171 93 320 213 407 327 30 40 78 124 107
186 134 291 300 562 447 732 95 109 213 212 213 185z m2767 -87 c20 -38 24
-151 7 -168 -8 -8 -21 12 -49 76 l-37 87 23 18 c32 25 36 24 56 -13z m-890 -5
c13 -46 7 -136 -11 -171 -28 -54 -33 -49 -71 83 -13 44 -22 82 -19 85 7 7 66
28 81 29 7 1 16 -11 20 -26z m-165 -59 c10 -36 -6 -129 -28 -161 -22 -34 -38
-17 -58 62 -25 98 -23 110 22 122 49 14 55 12 64 -23z m-167 -46 c7 -50 -6
-117 -30 -155 l-18 -26 -12 24 c-12 22 -45 136 -45 153 0 7 78 45 92 46 4 0
10 -19 13 -42z m-2435 23 c0 -5 35 -44 78 -88 92 -95 169 -141 261 -154 36 -5
67 -11 69 -14 3 -2 -3 -16 -13 -31 -12 -19 -20 -23 -28 -15 -20 20 -27 12 -27
-31 0 -24 -7 -52 -15 -62 -17 -22 -19 -19 -39 61 -13 51 -36 70 -36 30 0 -14
9 -55 21 -92 15 -48 18 -74 11 -89 -9 -20 -9 -20 -22 4 -8 14 -30 67 -50 119
-35 93 -60 126 -60 79 0 -12 23 -79 50 -147 33 -82 47 -128 41 -134 -20 -20
-64 58 -145 256 -17 42 -43 46 -38 7 1 -13 34 -87 72 -166 39 -79 70 -150 70
-158 0 -57 -52 9 -128 161 -49 96 -67 122 -78 110 -8 -8 54 -144 107 -235 47
-79 59 -112 41 -112 -25 0 -71 65 -147 208 -45 82 -73 99 -49 29 13 -38 48
-104 119 -223 22 -37 14 -78 -11 -53 -8 8 -48 69 -89 135 -92 148 -101 161
-111 152 -12 -13 20 -81 95 -201 70 -111 81 -137 61 -137 -11 0 -93 108 -187
248 -31 45 -60 82 -65 82 -20 0 -5 -41 37 -101 144 -208 185 -272 179 -280
-10 -16 -47 25 -154 166 -131 173 -159 205 -160 182 0 -10 44 -79 98 -154 151
-210 162 -226 162 -248 -1 -24 -7 -17 -172 185 -110 134 -130 154 -148 148
-10 -3 13 -34 182 -249 54 -68 98 -127 98 -131 0 -28 -44 8 -137 114 -134 152
-149 168 -163 168 -22 0 -7 -26 58 -98 137 -152 181 -207 182 -224 0 -37 -31
-15 -116 83 -84 96 -144 145 -144 118 0 -6 37 -51 83 -99 45 -48 90 -101 100
-118 37 -65 -5 -39 -111 68 -59 60 -114 110 -120 110 -29 0 -7 -36 62 -103 67
-66 114 -132 103 -144 -3 -2 -36 24 -74 59 -78 72 -169 148 -177 148 -3 0 -6
-9 -6 -19 0 -12 22 -37 58 -64 63 -49 152 -140 152 -157 0 -19 -17 -10 -73 39
-54 47 -175 128 -186 124 -20 -6 -4 -27 51 -64 76 -51 180 -148 172 -160 -7
-12 -30 1 -113 61 -73 54 -186 109 -179 88 3 -7 20 -23 39 -35 95 -61 202
-140 210 -155 18 -34 -11 -28 -73 15 -73 50 -197 102 -210 89 -5 -5 27 -26 74
-50 95 -46 168 -105 168 -133 0 -25 -5 -24 -48 10 -48 38 -108 69 -152 77 -30
6 -33 5 -23 -7 7 -9 44 -32 82 -54 82 -44 124 -84 112 -104 -7 -11 -21 -7 -67
22 -70 42 -114 56 -114 35 0 -7 26 -28 58 -45 71 -39 102 -68 102 -94 0 -11
-3 -19 -7 -17 -5 2 -38 19 -74 37 -65 33 -99 36 -99 8 0 -7 17 -19 38 -26 74
-26 122 -60 122 -86 0 -14 -1 -25 -2 -25 -2 0 -34 11 -73 25 -38 13 -78 25
-87 25 -31 0 -19 -20 20 -36 99 -39 132 -58 132 -76 0 -22 9 -22 -85 2 -90 23
-159 27 -153 8 3 -7 36 -18 74 -24 91 -16 145 -35 158 -56 16 -27 3 -30 -60
-14 -33 8 -96 18 -141 22 -70 6 -83 4 -83 -8 0 -12 19 -17 82 -23 45 -3 110
-15 145 -26 51 -16 63 -24 63 -41 0 -18 -4 -19 -32 -14 -71 14 -225 19 -232 8
-8 -13 5 -16 131 -31 108 -13 143 -24 143 -46 0 -14 -11 -15 -86 -9 -81 7 -86
6 -82 -12 3 -16 16 -20 82 -26 84 -8 92 -11 98 -43 3 -18 -3 -20 -49 -23 -45
-3 -53 -6 -53 -23 0 -17 7 -19 60 -19 48 0 61 -4 70 -19 9 -17 4 -21 -40 -36
-52 -17 -73 -50 -25 -40 14 3 36 7 48 10 28 5 67 -19 52 -33 -5 -5 -28 -14
-50 -20 -51 -15 -69 -27 -61 -40 4 -8 19 -6 48 4 52 18 92 18 107 0 14 -17 2
-25 -64 -46 -45 -14 -75 -37 -75 -56 0 -9 16 -6 58 11 78 31 122 36 122 12 0
-7 -29 -25 -64 -40 -59 -26 -105 -61 -95 -71 2 -3 41 11 86 31 46 19 89 33 98
29 30 -11 14 -33 -44 -61 -68 -32 -119 -70 -109 -80 4 -4 45 11 92 35 47 23
93 40 103 38 32 -6 25 -32 -14 -53 -70 -38 -104 -75 -69 -75 7 0 40 16 72 35
64 39 82 43 91 19 3 -9 -7 -28 -27 -50 -44 -45 -31 -55 29 -22 50 29 58 28 90
-14 11 -15 9 -23 -18 -53 -17 -20 -29 -40 -26 -44 8 -15 54 1 60 20 7 22 43
25 69 6 16 -11 14 -17 -24 -69 -41 -58 -52 -92 -25 -82 8 3 30 28 50 55 35 49
48 56 74 40 12 -8 12 -13 3 -24 -23 -27 -112 -180 -108 -184 13 -13 52 28 92
97 26 44 49 80 51 80 2 0 13 -5 23 -10 18 -9 16 -16 -31 -106 -28 -53 -48 -99
-45 -102 11 -10 36 21 81 99 25 43 49 79 54 79 5 0 14 -6 20 -14 9 -11 5 -28
-18 -79 -34 -75 -40 -95 -26 -98 6 -1 26 28 45 64 45 83 56 95 72 79 10 -10 7
-27 -11 -82 -37 -109 -5 -110 35 -2 14 35 28 58 39 61 16 3 17 -3 11 -59 -4
-34 -10 -68 -13 -76 -3 -8 1 -14 10 -14 8 0 18 12 21 28 23 94 27 102 48 102
19 0 20 -3 13 -76 -9 -96 10 -99 38 -6 12 43 23 62 34 62 14 0 15 -11 9 -90
-4 -57 -3 -90 3 -90 14 0 31 66 31 117 0 47 17 65 35 39 9 -12 11 -43 7 -101
-4 -74 -3 -85 12 -85 14 0 16 13 16 89 0 86 10 115 31 94 5 -5 14 -49 21 -97
9 -59 18 -91 27 -94 12 -4 13 12 8 97 -4 81 -2 101 8 101 19 0 25 -12 44 -93
10 -39 23 -73 31 -75 13 -5 13 10 -6 126 -6 38 -5 42 14 42 15 0 22 -9 27 -32
12 -53 46 -138 55 -138 11 0 5 40 -17 118 -8 30 -12 56 -9 59 14 14 35 -10 56
-66 43 -115 69 -100 29 18 -35 104 1 90 61 -23 19 -36 38 -66 43 -66 16 0 5
42 -28 106 -56 107 -19 102 52 -7 63 -96 82 -118 83 -96 0 23 -22 66 -72 140
-29 43 -37 62 -29 70 14 14 56 -25 119 -110 40 -55 62 -75 62 -58 0 15 -43 87
-84 140 -26 33 -42 61 -37 63 17 6 98 -55 138 -103 37 -44 71 -61 59 -29 -3 9
-6 20 -6 24 0 5 -32 43 -71 85 -39 42 -69 78 -67 80 10 11 81 -22 125 -56 80
-64 123 -92 130 -86 5 6 -44 55 -157 154 -86 76 17 29 209 -96 35 -22 67 -38
70 -35 8 8 -69 74 -171 145 -85 58 -95 68 -82 82 9 8 28 -2 152 -81 56 -35
105 -62 108 -60 7 8 -90 93 -159 137 -44 29 -56 42 -45 46 17 7 98 -31 166
-77 32 -22 42 -25 42 -14 0 9 -36 40 -80 68 -44 29 -80 56 -80 60 0 9 64 -13
118 -41 23 -12 47 -21 53 -21 24 0 -21 36 -81 65 -33 16 -60 35 -60 42 0 17
-2 18 102 -22 50 -20 94 -33 97 -29 10 10 -46 48 -109 73 -33 13 -60 30 -60
38 0 18 5 17 126 -22 121 -40 114 -38 114 -25 0 13 -60 42 -142 69 -38 13 -68
26 -68 31 0 18 34 18 107 -2 43 -11 94 -22 113 -24 l35 -4 -40 20 c-22 11 -70
29 -107 41 -38 11 -68 25 -68 29 0 20 24 20 106 0 96 -22 118 -25 109 -10 -3
5 -45 21 -92 36 -75 23 -84 28 -71 41 13 12 25 13 74 4 37 -7 61 -8 68 -1 11
11 0 16 -59 28 l-40 8 55 26 c30 14 71 29 90 33 l35 6 0 -68 c0 -91 36 -166
122 -250 35 -35 63 -64 63 -65 0 -2 -37 -3 -83 -3 -45 -1 -99 -7 -120 -14 -49
-17 -106 -67 -123 -108 -32 -75 -8 -193 62 -306 20 -32 34 -60 32 -63 -3 -2
-29 9 -59 26 -70 38 -175 62 -230 54 -61 -10 -129 -60 -158 -118 -20 -39 -26
-68 -29 -141 l-4 -93 -57 57 c-31 31 -83 70 -116 86 -53 26 -71 30 -145 30
-78 0 -89 -2 -130 -30 -58 -40 -135 -136 -159 -200 l-19 -50 -41 87 c-69 145
-178 247 -286 267 -104 19 -250 -29 -388 -130 -31 -23 -59 -40 -62 -38 -2 3 1
23 7 45 7 22 12 102 13 184 0 134 -2 149 -25 195 -37 76 -124 158 -193 184
-81 30 -204 29 -325 -3 -51 -13 -92 -20 -92 -15 0 4 13 23 28 41 50 58 102
163 118 240 26 121 0 230 -79 341 -86 120 -185 190 -336 237 -46 15 -80 29
-75 32 5 3 32 13 61 22 112 37 252 156 298 253 19 39 25 68 25 120 0 101 -37
173 -144 277 l-83 82 91 12 c76 10 110 21 202 66 61 29 127 68 147 85 100 89
112 253 31 448 -19 46 -34 86 -34 88 0 3 35 -19 78 -49 208 -146 368 -138 439
22 27 63 47 189 39 250 -3 25 -2 42 4 42 6 0 10 -4 10 -9z m3525 -94 c0 -40
-4 -81 -8 -92 -8 -18 -10 -17 -24 15 -8 19 -23 58 -33 87 l-19 52 27 20 c42
31 57 8 57 -82z m-2055 5 c0 -4 -35 -28 -77 -52 -79 -44 -184 -140 -219 -199
-22 -37 -34 -40 -34 -8 0 46 84 150 164 202 30 20 136 64 154 65 6 0 12 -4 12
-8z m775 -9 c-58 -146 -129 -349 -145 -415 -29 -123 -52 -328 -52 -458 0 -109
10 -165 47 -252 13 -32 -9 -19 -85 48 -85 75 -392 281 -490 330 -65 32 -146
54 -200 54 -41 0 -46 16 -11 35 67 34 179 5 304 -77 74 -50 78 -27 7 48 -46
48 -88 120 -77 130 2 3 26 -21 52 -51 26 -31 49 -54 52 -51 3 2 -2 39 -11 81
-19 90 -21 189 -5 234 18 51 29 36 29 -39 0 -87 21 -191 66 -332 32 -98 47
-128 60 -115 3 3 -5 42 -16 88 -59 231 -66 417 -17 458 11 8 13 -5 9 -72 -5
-100 15 -218 64 -376 37 -117 84 -231 96 -231 7 0 -1 36 -50 220 -55 209 -65
396 -27 471 9 17 19 28 22 25 3 -3 5 -49 4 -103 -2 -104 37 -329 80 -463 35
-109 39 -104 37 45 -3 226 50 465 144 653 40 78 85 132 110 132 6 0 7 -8 3
-17z m1130 -33 c7 -33 -12 -140 -25 -140 -10 0 -36 65 -45 111 -6 30 -3 37 17
46 36 18 46 15 53 -17z m-1857 -52 c-3 -7 -31 -29 -64 -48 -32 -19 -93 -68
-134 -107 -41 -40 -76 -73 -77 -73 -2 0 -3 10 -3 23 0 64 105 157 229 202 46
17 54 18 49 3z m1698 -23 c9 -36 -17 -157 -31 -143 -2 2 -11 37 -20 78 -12 59
-13 75 -3 82 25 15 48 8 54 -17z m-1176 -38 c0 -8 -11 -46 -25 -86 -13 -40
-36 -129 -51 -197 -30 -139 -45 -146 -46 -21 0 107 40 247 84 294 24 26 38 29
38 10z m1030 -26 c0 -21 -5 -53 -11 -71 l-12 -33 -12 24 c-34 65 -26 119 16
119 15 0 19 -8 19 -39z m-179 -202 c-58 -220 -80 -336 -92 -479 -13 -159 -14
-161 -44 -119 -13 19 -31 42 -41 51 -15 15 -15 21 -1 65 9 26 23 84 32 128 45
214 127 477 158 508 12 12 22 16 24 10 2 -6 -14 -80 -36 -164z m-127 -59 c-24
-107 -54 -245 -66 -307 -25 -134 -31 -145 -55 -121 -16 17 -14 28 32 225 56
239 86 343 110 379 9 14 18 24 20 22 1 -1 -17 -91 -41 -198z m-99 -12 c-22
-137 -75 -358 -85 -358 -12 0 -32 28 -27 37 3 4 26 95 51 201 44 185 62 240
73 229 3 -3 -3 -52 -12 -109z m-1905 -19 c-14 -48 -12 -125 5 -213 16 -87 39
-143 97 -239 22 -37 38 -71 34 -74 -3 -4 -25 7 -48 23 -75 53 -147 223 -148
349 0 52 22 136 44 170 22 34 28 28 16 -16z m710 -2 c0 -7 -15 -27 -32 -44
-32 -30 -140 -103 -153 -103 -4 0 -33 -18 -65 -41 -56 -39 -63 -41 -147 -46
-82 -4 -87 -3 -68 12 11 8 49 24 85 35 62 19 279 134 336 179 31 24 44 27 44
8z m1075 -108 c-14 -83 -32 -126 -46 -112 -8 8 9 99 32 171 19 59 28 20 14
-59z m-1891 -228 c16 -74 29 -101 50 -101 28 0 35 -23 16 -48 -11 -14 -20 -31
-20 -39 0 -32 87 -179 138 -235 35 -38 22 -45 -25 -15 -49 31 -95 83 -135 153
-34 60 -49 65 -80 23 -20 -26 -20 -26 2 -70 25 -50 81 -131 118 -171 64 -69
-31 -25 -102 48 -19 20 -45 58 -57 84 l-21 47 -34 -21 c-18 -11 -33 -28 -34
-37 0 -31 60 -135 112 -193 51 -58 52 -59 23 -52 -52 13 -101 53 -142 115
l-39 60 -44 -38 c-41 -35 -43 -39 -36 -76 10 -54 36 -101 86 -157 25 -29 36
-48 27 -48 -25 0 -96 58 -124 102 -15 24 -29 45 -31 48 -7 9 -52 -51 -52 -68
0 -31 51 -127 87 -164 38 -39 39 -55 4 -43 -37 11 -81 56 -108 108 l-25 51
-30 -33 c-24 -27 -28 -38 -22 -64 9 -44 27 -76 69 -127 21 -25 32 -46 26 -48
-19 -6 -76 44 -110 97 l-32 50 -35 -38 c-19 -21 -34 -47 -34 -57 0 -35 20 -91
45 -128 31 -45 31 -50 3 -35 -29 15 -42 32 -74 93 l-26 49 -56 -55 c-51 -49
-211 -168 -226 -168 -23 0 11 42 125 155 115 115 266 293 339 403 14 21 39 56
56 77 17 22 43 63 59 90 28 48 46 72 155 200 l51 60 -6 71 c-6 71 5 124 25
124 5 0 10 -17 10 -37 0 -51 18 -113 33 -113 7 0 24 10 40 23 l27 22 -15 70
c-21 99 -20 237 2 278 l18 32 6 -90 c4 -49 14 -123 23 -164z m509 30 c264 1
334 -21 577 -186 219 -148 248 -172 480 -400 339 -333 496 -444 766 -543 231
-84 458 -110 572 -65 43 17 54 19 58 8 10 -26 -26 -74 -141 -188 -62 -61 -119
-90 -219 -111 -223 -46 -393 -2 -860 224 -200 96 -313 143 -416 175 -96 29
-100 30 -260 55 -244 37 -333 71 -479 181 -164 123 -278 300 -308 479 -19 110
-13 156 17 140 13 -7 29 -44 51 -113 17 -56 44 -130 59 -163 66 -146 222 -303
366 -370 73 -34 202 -67 309 -79 179 -19 385 -95 751 -275 300 -148 434 -191
644 -206 75 -6 96 -3 173 20 70 21 95 35 129 68 l43 42 -60 7 c-33 4 -83 10
-111 14 l-52 7 -7 -31 c-9 -43 -35 -41 -35 3 0 33 -1 34 -65 50 -84 21 -92 20
-99 -9 -11 -41 -34 -31 -38 17 -3 42 -4 43 -58 59 -55 17 -55 16 -58 -5 -6
-46 -11 -50 -33 -30 -13 12 -19 28 -17 48 3 26 -2 33 -32 48 -53 26 -67 23
-74 -17 -12 -61 -48 -33 -45 34 2 22 1 42 -2 44 -36 29 -72 48 -83 44 -7 -3
-16 -22 -20 -41 -4 -20 -10 -36 -15 -36 -17 0 -33 48 -26 78 8 40 -6 65 -57
102 -52 38 -67 38 -75 0 -7 -38 -20 -47 -40 -27 -13 13 -14 23 -5 59 13 50 3
72 -47 101 -28 16 -32 16 -37 3 -10 -26 -27 -18 -20 10 8 30 -22 77 -64 99
-25 13 -29 13 -41 -1 -8 -10 -15 -12 -22 -5 -7 7 -6 15 3 26 11 13 8 22 -15
56 -27 38 -119 119 -136 119 -4 0 -11 -9 -14 -21 -4 -11 -12 -18 -18 -16 -18
6 -19 24 -1 41 15 16 15 18 -2 37 -11 12 -32 28 -49 36 -16 8 -48 32 -70 54
-22 21 -52 42 -67 48 -24 9 -29 7 -38 -10 -7 -13 -19 -19 -33 -17 -19 3 -22 9
-20 48 2 45 2 46 -50 77 -29 17 -63 34 -77 38 -14 4 -47 19 -74 32 -73 37
-178 53 -381 59 -189 5 -195 7 -195 55 0 40 17 50 57 34 25 -11 79 -14 206
-14z m1240 -31 c143 -45 235 -124 380 -324 115 -159 184 -233 260 -276 44 -25
63 -30 123 -30 59 0 75 4 104 25 20 15 36 21 38 15 6 -16 -46 -78 -79 -96 -48
-24 -153 -29 -243 -10 -133 27 -310 127 -366 207 l-24 33 80 -44 c43 -24 95
-54 115 -66 41 -26 106 -54 123 -54 6 0 -28 22 -76 49 -123 69 -168 104 -293
231 -60 62 -128 127 -150 145 -39 33 -178 105 -201 105 -22 0 -64 42 -64 65 0
25 14 40 45 48 35 10 164 -3 228 -23z m-1334 -175 c49 -25 26 -39 -32 -19 -56
19 -107 64 -107 93 0 20 5 18 53 -18 28 -21 67 -46 86 -56z m53 -190 c3 -28
13 -67 23 -89 9 -21 13 -41 10 -45 -13 -12 -55 50 -71 105 -17 61 -13 87 13
82 13 -2 20 -17 25 -53z m332 9 c14 -108 122 -268 244 -364 54 -43 64 -60 36
-60 -56 0 -197 110 -252 198 -53 83 -92 239 -65 265 17 18 31 3 37 -39z m1546
-40 c0 -51 -16 -77 -39 -64 -30 16 -32 47 -4 80 30 36 43 31 43 -16z m-1727
-41 c36 -116 146 -257 272 -350 l30 -22 -35 0 c-80 -1 -216 116 -271 234 -29
60 -50 157 -41 183 9 28 29 8 45 -45z m1137 -8 c0 -40 -39 -165 -51 -165 -11
0 -79 68 -79 79 0 13 107 121 119 121 6 0 11 -16 11 -35z m-710 -11 c15 -39
68 -113 124 -172 27 -29 46 -55 43 -58 -11 -11 -92 43 -134 88 -60 66 -92 168
-53 168 6 0 15 -12 20 -26z m1420 -27 c0 -24 -6 -52 -14 -63 -15 -19 -15 -19
-37 3 l-22 21 33 41 c19 23 35 41 37 41 2 0 3 -19 3 -43z m-570 -76 c0 -56
-34 -181 -49 -181 -4 0 -26 16 -49 36 -48 41 -48 44 20 117 46 49 78 61 78 28z
m140 -136 c0 -49 -16 -132 -29 -154 -7 -11 -18 -6 -55 24 -40 33 -44 40 -35
59 13 25 100 116 111 116 4 0 8 -20 8 -45z m-1690 0 c17 -21 8 -29 -75 -63
-39 -16 -108 -52 -155 -79 -47 -27 -139 -82 -205 -120 -188 -111 -209 -110
-82 6 95 85 201 157 306 208 127 61 188 75 211 48z m1840 -147 c-11 -61 -28
-108 -39 -108 -14 0 -72 41 -77 55 -7 18 8 42 67 109 41 46 43 47 51 26 5 -13
4 -48 -2 -82z m560 80 c-1 -25 -39 -98 -55 -105 -9 -3 -23 1 -31 9 -13 13 -10
20 28 60 46 48 58 56 58 36z m-402 -154 c-5 -104 -16 -119 -66 -99 -60 26 -64
32 -43 73 27 52 91 123 103 116 6 -4 9 -39 6 -90z m482 68 c0 -34 -16 -52 -47
-52 -29 0 -29 5 3 47 31 40 44 42 44 5z m-2353 2 c2 -7 -18 -20 -44 -30 -288
-105 -445 -202 -767 -474 -159 -135 -269 -201 -334 -200 l-27 1 35 27 c139
109 211 171 261 226 39 42 79 74 121 95 35 17 92 56 128 87 89 76 165 125 295
189 156 78 320 116 332 79z m-1322 -75 c-48 -49 -131 -106 -140 -97 -6 6 166
148 179 148 6 0 -12 -23 -39 -51z m3351 15 c6 -24 0 -102 -13 -151 -3 -14 -13
-23 -25 -23 -18 0 -78 26 -78 35 0 26 84 165 100 165 5 0 13 -11 16 -26z m441
-74 c-3 -33 -14 -75 -24 -92 -21 -37 -63 -51 -63 -22 0 25 71 174 83 174 6 0
8 -24 4 -60z m-2377 39 c0 -6 -28 -23 -62 -37 -98 -42 -287 -141 -353 -185
-140 -94 -235 -184 -426 -404 -110 -125 -156 -164 -165 -139 -7 19 35 79 170
241 147 176 235 257 409 374 76 52 210 110 310 136 106 28 117 29 117 14z
m2091 -16 c12 -31 2 -125 -15 -149 -15 -20 -74 -11 -83 13 -9 23 63 163 83
163 2 0 9 -12 15 -27z m149 -69 c0 -51 -4 -68 -21 -85 -18 -18 -49 -19 -67 -3
-16 13 61 169 78 159 6 -4 10 -35 10 -71z m-2295 -78 c-203 -100 -348 -197
-484 -325 -19 -17 -36 -29 -39 -27 -11 12 54 100 120 161 117 108 242 180 404
234 164 55 163 38 -1 -43z m623 2 c-3 -7 -51 -29 -109 -49 -57 -19 -147 -57
-199 -84 -102 -53 -170 -114 -355 -319 -113 -126 -199 -197 -299 -247 -74 -37
-124 -50 -111 -29 3 5 47 40 98 79 121 91 200 164 293 269 109 124 255 254
327 293 129 69 368 127 355 87z m-447 -31 c-6 -8 -30 -22 -53 -32 -115 -50
-285 -156 -404 -252 -43 -35 -54 -39 -54 -23 0 17 64 83 139 142 84 67 183
121 286 154 84 28 102 30 86 11z m-162 -190 c-135 -120 -188 -167 -193 -167
-31 0 67 107 146 159 72 49 97 53 47 8z"/>
<path d="M4450 4036 c0 -2 35 -17 78 -32 42 -15 93 -37 112 -47 l35 -19 -30
26 c-33 29 -195 88 -195 72z"/>
<path d="M3436 6144 c-9 -23 6 -36 35 -32 16 2 24 10 24 23 0 27 -49 34 -59 9z"/>
<path d="M2112 6121 c-11 -7 -11 -17 0 -62 11 -47 16 -54 38 -54 23 0 25 3 23
40 -5 81 -21 102 -61 76z"/>
<path d="M1010 6010 c-8 -15 -7 -28 6 -52 22 -44 138 -211 158 -227 19 -16 60
-10 64 9 2 14 -97 189 -150 263 -23 32 -62 36 -78 7z"/>
<path d="M1597 5983 c-12 -11 -7 -40 9 -53 13 -11 19 -10 36 7 25 26 18 53
-15 53 -13 0 -27 -3 -30 -7z"/>
<path d="M2159 5953 c-19 -5 -22 13 47 -273 89 -370 135 -531 157 -544 34 -22
33 -10 -38 284 -8 36 -24 108 -35 160 -19 90 -59 260 -81 343 -9 36 -16 40
-50 30z"/>
<path d="M1234 5676 c-13 -35 57 -113 90 -100 23 9 20 26 -14 72 -31 43 -66
55 -76 28z"/>
<path d="M2452 5668 c-17 -17 -15 -74 4 -92 21 -22 51 -20 64 3 17 32 12 69
-12 85 -27 19 -40 20 -56 4z"/>
<path d="M1646 5584 c-20 -19 -20 -24 0 -52 22 -31 68 -27 72 6 4 25 -23 62
-44 62 -7 0 -20 -7 -28 -16z"/>
<path d="M1334 5539 c-7 -11 31 -70 121 -184 30 -38 86 -115 126 -170 86 -119
108 -145 126 -145 7 0 13 8 13 18 0 22 -80 145 -125 192 -18 19 -54 69 -79
110 -92 152 -158 217 -182 179z"/>
<path d="M393 5293 c-7 -17 6 -31 141 -142 69 -57 79 -62 93 -49 21 22 6 46
-69 106 -35 28 -76 62 -93 76 -35 29 -63 33 -72 9z"/>
<path d="M951 5086 c-9 -11 -9 -20 -2 -34 14 -26 131 -132 146 -132 6 0 25
-20 42 -44 35 -49 76 -81 93 -71 20 13 9 35 -34 64 -26 18 -56 52 -74 83 -31
56 -122 148 -145 148 -8 0 -20 -6 -26 -14z"/>
<path d="M697 5053 c-4 -3 -7 -12 -7 -18 0 -11 255 -225 344 -289 63 -45 266
-206 312 -247 23 -20 51 -42 63 -48 18 -10 21 -9 21 10 0 25 -43 67 -204 197
-66 54 -150 122 -187 152 -38 30 -120 99 -183 153 -104 88 -140 109 -159 90z"/>
<path d="M965 4569 c-10 -16 20 -44 140 -129 153 -109 186 -121 171 -68 -5 21
-116 102 -245 180 -51 31 -57 33 -66 17z"/>
<path d="M5858 4428 c-34 -11 -58 -26 -58 -34 0 -18 10 -18 91 6 44 14 69 26
69 35 0 20 -32 18 -102 -7z"/>
<path d="M965 4330 c-18 -28 36 -80 69 -67 22 9 20 33 -4 57 -21 21 -55 26
-65 10z"/>
<path d="M5376 4235 c-76 -35 -141 -67 -144 -69 -2 -3 -2 -12 2 -21 7 -20 9
-19 179 48 129 50 161 69 154 91 -8 26 -59 13 -191 -49z"/>
<path d="M6700 4216 c-54 -15 -82 -29 -100 -50 -16 -21 -3 -21 87 -1 37 9 78
18 91 20 14 4 22 13 22 25 0 24 -30 25 -100 6z"/>
<path d="M5679 4158 c-9 -17 -9 -24 5 -33 35 -26 101 9 76 40 -19 23 -67 19
-81 -7z"/>
<path d="M6390 4148 c-19 -6 -75 -24 -125 -40 -87 -29 -236 -71 -455 -128
-260 -69 -411 -111 -435 -122 -27 -12 -33 -35 -12 -44 21 -8 1087 276 1125
299 6 5 12 17 12 28 0 16 -7 19 -37 18 -21 -1 -54 -6 -73 -11z"/>
<path d="M5390 4068 c-120 -46 -130 -52 -109 -73 13 -13 29 -10 137 26 118 39
135 52 110 77 -16 16 -19 16 -138 -30z"/>
<path d="M6648 4048 c-30 -10 -38 -28 -13 -28 19 0 85 27 85 34 0 9 -42 6 -72
-6z"/>
<path d="M6483 3993 c-21 -8 -15 -22 7 -16 11 3 20 9 20 14 0 10 -8 10 -27 2z"/>
<path d="M6340 3973 c-14 -3 -211 -52 -438 -109 -227 -57 -414 -104 -416 -104
-7 0 6 -40 14 -45 4 -2 60 9 126 25 198 49 646 157 701 170 57 13 77 29 67 54
-6 16 -10 17 -54 9z"/>
<path d="M722 3908 c-18 -18 -15 -53 7 -72 25 -23 79 -18 98 10 12 18 11 24
-8 47 -22 29 -75 37 -97 15z"/>
<path d="M999 3793 c-9 -10 -8 -18 6 -33 34 -37 97 -14 66 24 -17 20 -59 26
-72 9z"/>
<path d="M6020 3705 c-308 -64 -300 -62 -300 -81 0 -31 28 -30 265 16 100 19
326 60 333 60 12 0 -6 55 -18 57 -8 1 -134 -22 -280 -52z"/>
<path d="M6248 3575 c-14 -31 3 -55 41 -55 48 0 71 49 32 70 -33 17 -61 12
-73 -15z"/>
<path d="M6031 3436 c-14 -17 -5 -43 20 -56 14 -8 21 -5 33 12 28 39 -22 82
-53 44z"/>
<path d="M586 3255 c4 -8 8 -15 10 -15 2 0 4 7 4 15 0 8 -4 15 -10 15 -5 0 -7
-7 -4 -15z"/>
<path d="M888 2983 c-23 -6 -23 -39 -2 -47 17 -7 64 18 64 33 0 5 -7 12 -16
15 -17 6 -19 6 -46 -1z"/>
<path d="M6154 2929 c-13 -22 18 -33 94 -34 72 0 77 1 80 23 3 21 1 22 -82 22
-50 0 -88 -4 -92 -11z"/>
<path d="M6429 2914 c-22 -27 11 -41 124 -53 56 -7 170 -21 252 -31 232 -31
288 -26 297 24 2 11 -8 27 -25 39 -33 25 -155 35 -448 36 -160 1 -188 -1 -200
-15z"/>
<path d="M6215 2812 c-3 -3 -5 -13 -5 -23 0 -14 12 -19 68 -24 37 -3 132 -14
212 -25 228 -30 220 -30 220 -3 0 30 -23 38 -120 47 -41 3 -115 11 -165 16
-125 13 -204 18 -210 12z"/>
<path d="M727 2752 c-22 -24 -21 -35 1 -55 38 -34 112 -10 112 36 0 37 -85 51
-113 19z"/>
<path d="M1110 2629 c-41 -16 -138 -53 -215 -81 -77 -28 -143 -56 -147 -62 -4
-6 -1 -18 8 -26 13 -13 26 -11 117 22 126 45 274 107 305 126 22 14 29 36 14
46 -4 2 -41 -9 -82 -25z"/>
<path d="M4242 2618 c3 -20 14 -26 78 -41 87 -21 153 -16 128 10 -18 17 -139
53 -181 53 -24 0 -28 -4 -25 -22z"/>
<path d="M4634 2409 c-5 -8 35 -29 57 -29 6 0 74 -24 152 -54 78 -30 192 -71
252 -90 65 -21 145 -56 195 -86 170 -100 583 -300 648 -315 25 -5 38 -3 53 11
24 22 24 35 -2 68 -30 38 -55 49 -322 143 -131 46 -287 105 -345 132 -100 45
-333 125 -498 170 -40 10 -80 24 -90 29 -35 18 -94 31 -100 21z"/>
<path d="M5877 2347 c-8 -22 8 -39 34 -35 35 5 33 42 -2 46 -16 2 -29 -3 -32
-11z"/>
<path d="M4130 2145 c0 -8 10 -20 23 -26 12 -7 83 -51 157 -99 74 -47 163
-104 198 -126 35 -21 117 -74 183 -117 359 -233 465 -295 481 -279 22 22 0 49
-77 94 -115 67 -350 210 -659 402 -149 91 -278 166 -288 166 -10 0 -18 -7 -18
-15z"/>
<path d="M4931 2076 c-15 -18 -4 -44 21 -52 24 -7 41 7 36 31 -4 24 -43 38
-57 21z"/>
<path d="M1530 1981 c-8 -6 -159 -153 -335 -328 -176 -176 -420 -417 -542
-537 -123 -120 -223 -221 -223 -226 0 -20 32 -40 48 -31 16 9 751 747 975 978
65 69 107 120 107 132 0 23 -7 26 -30 12z"/>
<path d="M4170 1960 c0 -22 56 -62 540 -383 74 -50 217 -152 317 -228 203
-155 251 -184 287 -175 33 8 43 42 19 68 -25 28 -110 85 -240 162 -207 121
-646 396 -772 483 -90 62 -151 92 -151 73z"/>
<path d="M5224 1906 c-12 -31 0 -51 31 -51 24 0 31 5 33 24 6 36 -51 60 -64
27z"/>
<path d="M1572 1785 c-24 -18 -52 -65 -52 -89 0 -13 4 -14 24 -5 28 13 60 67
55 92 -4 16 -6 16 -27 2z"/>
<path d="M1436 1617 c-50 -53 -205 -229 -275 -312 -53 -62 -71 -109 -52 -128
19 -19 39 1 144 139 53 71 120 154 147 185 85 98 119 159 89 159 -7 0 -30 -20
-53 -43z"/>
<path d="M3593 1614 c-3 -8 2 -23 11 -32 15 -15 17 -15 33 0 13 14 14 20 3 32
-16 20 -39 20 -47 0z"/>
<path d="M3747 1482 c-10 -10 -17 -30 -17 -44 0 -58 92 -92 124 -46 22 31 20
41 -10 77 -30 36 -72 41 -97 13z"/>
<path d="M2923 1434 c-8 -20 17 -334 29 -356 5 -10 18 -18 28 -18 18 0 20 7
20 56 0 85 -21 297 -31 317 -12 21 -38 22 -46 1z"/>
<path d="M4280 1391 c0 -5 6 -14 14 -20 11 -9 16 -9 21 0 4 6 1 15 -6 20 -18
11 -29 11 -29 0z"/>
<path d="M4380 1295 c-10 -13 -10 -19 5 -35 21 -23 60 -26 68 -6 8 19 -20 56
-42 56 -10 0 -24 -7 -31 -15z"/>
<path d="M1637 1252 c-23 -25 -21 -55 3 -77 44 -40 98 13 71 71 -13 29 -51 32
-74 6z"/>
<path d="M2761 1155 c4 -107 8 -135 21 -135 15 0 4 198 -11 213 -10 9 -12 -7
-10 -78z"/>
<path d="M4573 1094 c-4 -11 1 -22 12 -31 26 -18 40 -12 40 18 0 30 -41 40
-52 13z"/>
<path d="M3403 1049 c7 -59 22 -81 51 -77 29 4 31 29 7 83 -15 34 -25 45 -42
45 -20 0 -21 -3 -16 -51z"/>
<path d="M901 1024 c-34 -28 -41 -68 -15 -78 11 -4 29 7 56 35 31 33 37 44 27
55 -17 20 -33 17 -68 -12z"/>
<path d="M1906 945 c-17 -17 -55 -115 -63 -162 -6 -37 16 -54 41 -33 12 9 76
167 76 185 0 2 -9 9 -19 15 -15 7 -23 6 -35 -5z"/>
<path d="M3460 881 c0 -19 31 -142 42 -165 12 -28 31 -38 54 -29 22 8 14 71
-19 146 -22 48 -30 57 -51 57 -15 0 -26 -4 -26 -9z"/>
</g>
</svg>
